# xmcd CD database file
#
# Track frame offsets:
#	150
#	27285
#	56795
#	84917
#	99897
#	127997
#	153975
#	180905
#	210200
#	230405
#	261192
#	285502
#
# Disc length: 4051 seconds
#
# Revision: 0
# Processed by: cddbd v1.5.2PL0 Copyright (c) Steve Scherf et al.
# Submitted via: CDex 1.51
#
DISCID=8b0fd10c
DTITLE=Alan Barnes - Days Of Wine And Roses
DYEAR=1997
DGENRE=Jazz
TTITLE0=Who Cares?
TTITLE1=Deep In A Dream
TTITLE2=Oh Lady Be Good
TTITLE3=Chilli Pepper
TTITLE4=Too Late Now
TTITLE5=Flamingo
TTITLE6=My Old Flame
TTITLE7=Days Of Wine And Roses
TTITLE8=How High The Moon
TTITLE9=I Guess I'll Have To Change My Mind
TTITLE10=Blue Room
TTITLE11=Applecore
EXTD=YEAR: 1997
EXTT0=
EXTT1=
EXTT2=
EXTT3=
EXTT4=
EXTT5=
EXTT6=
EXTT7=
EXTT8=
EXTT9=
EXTT10=
EXTT11=
PLAYORDER=
